# xmcd CD database file
#
# Track frame offsets:
#	150
#	18416
#	48596
#	71302
#	87802
#	107913
#	135059
#	169799
#	197942
#	226684
#	255136
#	276504
#	291206
#	317005
#	343198
#
# Disc length: 4730 seconds
#
# Revision: 0
# Processed by: cddbd v1.5.2PL0 Copyright (c) Steve Scherf et al.
# Submitted via: CDex 1.51
#
DISCID=cd12780f
DTITLE=Bill Evans - Best Of Bill Evans 1977 - 1980
DYEAR=2010
DGENRE=Jazz
TTITLE0=My Foolish Heart 
TTITLE1=Days Of Wine And Roses
TTITLE2=Autumn Leaves
TTITLE3=For All We Know ( We May Never Meet Again ) 
TTITLE4=A Sleepin' Bee
TTITLE5=The Peacocks
TTITLE6=My Romance
TTITLE7=Peri's Scope
TTITLE8=Like Someone In Love
TTITLE9=Body And Soul
TTITLE10=Letter To Evan
TTITLE11=B Minor Waltz ( For Ellaine )
TTITLE12=You Must Believe In Spring
TTITLE13=Quiet Now
TTITLE14=We Will Meet Again
EXTD=YEAR: 2010
EXTT0=
EXTT1=
EXTT2=
EXTT3=
EXTT4=
EXTT5=
EXTT6=
EXTT7=
EXTT8=
EXTT9=
EXTT10=
EXTT11=
EXTT12=
EXTT13=
EXTT14=
PLAYORDER=
